<?xml version="1.0" encoding="UTF-8" standalone="no"?>
<!-- Created with Inkscape (http://www.inkscape.org/) -->

<svg
   xmlns:dc="http://purl.org/dc/elements/1.1/"
   xmlns:cc="http://creativecommons.org/ns#"
   xmlns:rdf="http://www.w3.org/1999/02/22-rdf-syntax-ns#"
   xmlns:svg="http://www.w3.org/2000/svg"
   xmlns="http://www.w3.org/2000/svg"
   xmlns:sodipodi="http://sodipodi.sourceforge.net/DTD/sodipodi-0.dtd"
   xmlns:inkscape="http://www.inkscape.org/namespaces/inkscape"
   version="1.1"
   id="svg2"
   xml:space="preserve"
   width="1045.8606"
   height="684.64862"
   viewBox="0 0 1045.8606 684.64862"
   sodipodi:docname="ICONO LOGO ORUGA.svg"
   inkscape:version="0.92.1 r15371"><metadata
     id="metadata8"><rdf:RDF><cc:Work
         rdf:about=""><dc:format>image/svg+xml</dc:format><dc:type
           rdf:resource="http://purl.org/dc/dcmitype/StillImage" /><dc:title></dc:title></cc:Work></rdf:RDF></metadata><defs
     id="defs6"><clipPath
       clipPathUnits="userSpaceOnUse"
       id="clipPath18"><path
         d="M 0,1080 H 1080 V 0 H 0 Z"
         id="path16"
         inkscape:connector-curvature="0" /></clipPath></defs><sodipodi:namedview
     pagecolor="#ffffff"
     bordercolor="#666666"
     borderopacity="1"
     objecttolerance="10"
     gridtolerance="10"
     guidetolerance="10"
     inkscape:pageopacity="0"
     inkscape:pageshadow="2"
     inkscape:window-width="1920"
     inkscape:window-height="1020"
     id="namedview4"
     showgrid="false"
     inkscape:zoom="0.16388889"
     inkscape:cx="537.18332"
     inkscape:cy="327.77095"
     inkscape:window-x="0"
     inkscape:window-y="31"
     inkscape:window-maximized="1"
     inkscape:current-layer="g10" /><g
     id="g10"
     inkscape:groupmode="layer"
     inkscape:label="ICONO LOGO ORUGA"
     transform="matrix(1.3333333,0,0,-1.3333333,-195.02007,1076.8776)"><g
       id="g12"><g
         id="g14"
         clip-path="url(#clipPath18)"><g
           id="g20"
           transform="translate(400.2181,706.4958)"><path
             d="m 0,0 c -1.521,-7.231 -4.408,-16.317 -9.675,-27.12 30.918,-21.377 54.894,-51.878 71.653,-91.102 7.67,7.086 16.107,15.141 21.557,20.381 C 63.763,-55.638 35.802,-22.896 0,0"
             style="fill:#399384;fill-opacity:1;fill-rule:nonzero;stroke:none"
             id="path22"
             inkscape:connector-curvature="0" /></g><g
           id="g24"
           transform="translate(243.9065,754.4492)"><path
             d="m 0,0 c 10.613,0.39 21.021,0.35 32.027,-0.235 -0.323,-0.408 8.915,20.628 45.712,24.75 28.092,3.146 101.865,-1.01 180.566,-110.933 5.897,-8.237 56.145,-79.521 68.419,-92.402 3.733,11.177 9.749,26.348 10.981,29.438 -9.131,10.76 -52.432,73.344 -56.658,79.244 C 193.685,51.887 107.503,56.131 74.508,52.298 50.003,49.446 13.491,32.713 -0.014,-0.017 c 0,0 0.011,0.009 0.014,0.017"
             style="fill:#399384;fill-opacity:1;fill-rule:nonzero;stroke:none"
             id="path26"
             inkscape:connector-curvature="0" /></g><g
           id="g28"
           transform="translate(561.342,648.683)"><path
             d="m 0,0 c 4.657,6.88 9.245,13.581 13.373,19.348 78.703,109.923 152.491,114.197 180.569,110.933 11.133,-1.295 26.21,-6.838 37.787,-16.596 19.376,-16.329 22.52,-51.943 4.423,-72.272 -9.366,-10.525 -22.801,-15.55 -37.421,-15.086 -12.784,0.404 -26.19,5.471 -34.469,14.679 0.021,-0.062 0.026,-0.132 0.075,-0.186 -9.376,-3.898 -17.658,-8.184 -25.324,-12.874 12.277,-17.31 33.841,-28.78 58.832,-29.575 54.534,-1.742 80.909,43.794 79.217,82.668 -2.084,48.013 -46.125,73.098 -79.889,77.025 C 140.397,164.656 60.206,137.009 -16.849,24.934 -11.006,16.351 -5.024,7.381 0,0"
             style="fill:#399384;fill-opacity:1;fill-rule:nonzero;stroke:none"
             id="path30"
             inkscape:connector-curvature="0" /></g><g
           id="g32"
           transform="translate(695.2638,685.1883)"><path
             d="m 0,0 c 7.656,4.67 52.868,31.844 104.198,30.702 -0.031,0.006 -0.062,0.02 -0.062,0.02 2.155,9.975 0.013,20.073 -3.345,28.001 -115.819,-8.197 -198.95,-74.466 -228.885,-216.375 9.348,-0.058 21.858,-0.752 28.367,-1.155 9.085,35.752 21.354,66.983 24.126,72.737 C -57.496,-48.488 -32.213,-19.653 0,0"
             style="fill:#399384;fill-opacity:1;fill-rule:nonzero;stroke:none"
             id="path34"
             inkscape:connector-curvature="0" /></g><g
           id="g36"
           transform="translate(240.8712,706.1536)"><path
             d="m 0,0 c 10.566,-44.979 47.605,-60.048 76.871,-59.099 28.916,0.917 51.59,17.009 63.922,38.136 8.879,15.211 12.415,40.723 11.68,42.106 -1.112,2.09 -28.012,8.599 -28.012,8.599 C 124.266,14.782 121.19,-31.886 75.985,-31.144 58.074,-30.851 37.48,-23.477 29.082,0.274 29.091,0.237 29.071,0.204 29.085,0.167 20.101,0.526 11.172,0.575 0,0"
             style="fill:#399384;fill-opacity:1;fill-rule:nonzero;stroke:none"
             id="path38"
             inkscape:connector-curvature="0" /></g><g
           id="g40"
           transform="translate(930.3023,727.477)"><path
             d="m 0,0 c -24.88,7.955 -50.2,13.712 -83.578,16.228 1.873,-9.054 2.221,-18.568 1.044,-28.376 -0.011,0 -0.021,-0.009 -0.021,-0.009 24.255,-2.023 43.948,-6.148 55.03,-8.886 -3.598,-77.692 -46.842,-140.391 -131.985,-158.146 -71.796,-14.97 -118.443,-2.166 -152.997,22.624 -3.002,-9.268 -6.241,-19.807 -8.62,-27.654 50.398,-32.534 108.114,-34.693 167.329,-22.348 C -47.007,-184.298 5.238,-97.107 0,0"
             style="fill:#399384;fill-opacity:1;fill-rule:nonzero;stroke:none"
             id="path42"
             inkscape:connector-curvature="0" /></g><g
           id="g44"
           transform="translate(532.2736,606.7496)"><path
             d="m 0,0 c -4.828,6.648 -7.919,11.111 -16.826,24.335 0.005,0.005 0.002,0.026 0.008,0.034 -19.597,-27.285 -29.424,-37.218 -48.612,-54.343 -35.283,-28.544 -83.449,-44.599 -160.711,-28.487 -85.349,17.801 -128.406,80.852 -131.981,158.145 8.908,2.2 23.413,4.979 41.301,7.481 42.073,5.888 68.659,1.614 77.294,0.584 18.035,-2.145 36.633,-6.18 54.838,-12.927 3.577,6.454 6.18,17.882 7.814,27.001 -11.773,4.273 -23.624,7.543 -35.359,9.986 -17.109,3.559 -70.435,9.359 -116.694,2.167 -32.992,-5.127 -50.063,-11.12 -56.718,-13.249 -5.3,-97.969 47.584,-184.419 153.798,-206.566 C -125.496,-108.015 -58.396,-78.235 0,0"
             style="fill:#399384;fill-opacity:1;fill-rule:nonzero;stroke:none"
             id="path46"
             inkscape:connector-curvature="0" /></g><g
           id="g48"
           transform="translate(521.1678,518.7225)"><path
             d="m 0,0 c 1.623,-9.01 3.202,-21.299 4.018,-28.002 4.148,-0.077 49.908,2.589 89.902,-4.109 41.412,-6.931 72.378,-22.279 92.378,-46.09 29.101,-34.631 29.096,-81.532 22.54,-118.217 -55.828,1.834 -95.764,17.909 -118.785,47.841 -19.923,25.906 -27.664,62.782 -23.198,110.052 -8.935,0.351 -19.422,0.599 -27.946,0.762 -4.72,-53.777 4.949,-96.625 28.974,-127.862 39.172,-50.935 103.116,-59.013 163.57,-58.925 2.867,12.799 6.013,25.694 7.801,43.76 4.828,48.771 -5.866,90.022 -31.537,120.58 -22.963,27.331 -56.737,45.432 -100.9,54.171 C 80.63,-0.859 26.789,-0.256 0,0"
             style="fill:#399384;fill-opacity:1;fill-rule:nonzero;stroke:none"
             id="path50"
             inkscape:connector-curvature="0" /></g><g
           id="g52"
           transform="translate(502.1099,558.7367)"><path
             d="m 0,0 c -7.828,-6.633 -16.928,-14.611 -23.527,-20.442 1.777,-7.127 12.961,-52.905 11.527,-86.149 -1.464,-34.009 -8.608,-61.465 -24.403,-82 -23.02,-29.938 -62.95,-46.007 -118.786,-47.841 -6.552,36.685 -6.56,83.586 22.539,118.222 22.61,26.905 59.176,43.086 109.056,48.37 -1.587,9.541 -3.464,19.977 -4.856,27.554 -56.417,-6.348 -98.55,-25.72 -125.614,-57.938 -25.004,-29.762 -35.802,-69.671 -31.883,-116.794 0.979,-11.773 8.142,-47.546 8.142,-47.546 62.326,-0.09 124.994,8.756 163.575,58.925 19.18,24.942 30.081,57.264 30.086,96.663 C 15.86,-75.329 3.728,-13.273 0,0"
             style="fill:#399384;fill-opacity:1;fill-rule:nonzero;stroke:none"
             id="path54"
             inkscape:connector-curvature="0" /></g></g></g></g></svg>